# Blender v2.91.2 OBJ File: ''
# www.blender.org
mtllib track.mtl
o Cylinder
v 3.000000 3.096344 -0.499999
v 3.000000 3.096344 0.500000
v 2.942356 2.511073 0.500000
v 2.942356 2.511073 -0.500000
v 2.771639 1.948294 0.500000
v 2.771639 1.948294 -0.500000
v 2.494409 1.429633 0.500000
v 2.494409 1.429633 -0.500000
v 2.121320 0.975024 0.500000
v 2.121320 0.975024 -0.500000
v 1.666711 0.601935 0.500000
v 1.666711 0.601935 -0.500000
v 1.148050 0.324705 0.500000
v 1.148050 0.324705 -0.500000
v 0.585270 0.153988 0.500000
v 0.585270 0.153988 -0.500000
v -0.000001 0.096344 0.500000
v -0.000001 0.096344 -0.500000
v -0.585272 0.153988 0.500000
v -0.585272 0.153988 -0.500000
v -1.148052 0.324706 0.500000
v -1.148052 0.324706 -0.500000
v -1.666712 0.601936 0.500000
v -1.666712 0.601936 -0.500000
v -2.121322 0.975025 0.500000
v -2.121322 0.975025 -0.500000
v -2.494410 1.429635 0.500000
v -2.494410 1.429635 -0.500000
v -2.771640 1.948296 0.500000
v -2.771640 1.948296 -0.500000
v -2.942356 2.511075 0.500000
v -2.942356 2.511075 -0.500000
v -3.000000 3.096347 0.500000
v -3.000000 3.096347 -0.499999
v 2.376846 2.623560 -0.500000
v 2.423411 3.096344 -0.499999
v 2.423411 3.096344 0.500000
v 2.376846 2.623560 0.500000
v 2.238940 2.168945 -0.500000
v 2.238940 2.168945 0.500000
v 2.014993 1.749969 -0.500000
v 2.014993 1.749969 0.500000
v 1.713610 1.382733 -0.500000
v 1.713610 1.382733 0.500000
v 1.346375 1.081351 -0.500000
v 1.346375 1.081351 0.500000
v 0.927399 0.857404 -0.500000
v 0.927399 0.857404 0.500000
v 0.472784 0.719498 -0.500000
v 0.472784 0.719498 0.500000
v -0.000001 0.672933 -0.500000
v -0.000001 0.672933 0.500000
v -0.472785 0.719498 -0.500000
v -0.472785 0.719498 0.500000
v -0.927400 0.857404 -0.500000
v -0.927400 0.857404 0.500000
v -1.346376 1.081352 -0.500000
v -1.346376 1.081352 0.500000
v -1.713611 1.382734 -0.500000
v -1.713611 1.382734 0.500000
v -2.014994 1.749970 -0.500000
v -2.014994 1.749970 0.500000
v -2.238940 2.168947 -0.500000
v -2.238940 2.168947 0.500000
v -2.376846 2.623562 -0.500000
v -2.376846 2.623562 0.500000
v -2.423411 3.096346 -0.499999
v -2.423411 3.096346 0.500000
vt 0.750000 0.667203
vt 0.750000 0.832797
vt 0.718750 0.832797
vt 0.718750 0.667203
vt 0.687500 0.832797
vt 0.687500 0.667203
vt 0.656250 0.832797
vt 0.656250 0.667203
vt 0.625000 0.832797
vt 0.625000 0.667203
vt 0.593750 0.832797
vt 0.593750 0.667203
vt 0.562500 0.832797
vt 0.562500 0.667203
vt 0.531250 0.832797
vt 0.531250 0.667203
vt 0.500000 0.832797
vt 0.500000 0.667203
vt 0.468750 0.832797
vt 0.468750 0.667203
vt 0.437500 0.832797
vt 0.437500 0.667203
vt 0.406250 0.832797
vt 0.406250 0.667203
vt 0.375000 0.832797
vt 0.375000 0.667203
vt 0.343750 0.832797
vt 0.343750 0.667203
vt 0.312500 0.832797
vt 0.312500 0.667203
vt 0.281250 0.832797
vt 0.281250 0.667203
vt 0.250000 0.832797
vt 0.250000 0.667203
vt 0.990000 0.250000
vt 0.985388 0.203178
vt 0.972206 0.205801
vt 0.976559 0.250000
vt 0.485388 0.203178
vt 0.490000 0.250000
vt 0.476559 0.250000
vt 0.472206 0.205801
vt 0.971731 0.158156
vt 0.959313 0.163300
vt 0.471731 0.158156
vt 0.459313 0.163300
vt 0.949553 0.116663
vt 0.938377 0.124131
vt 0.449553 0.116663
vt 0.438377 0.124131
vt 0.919706 0.080294
vt 0.910201 0.089799
vt 0.419706 0.080294
vt 0.410201 0.089799
vt 0.883337 0.050447
vt 0.875869 0.061623
vt 0.383337 0.050447
vt 0.375869 0.061623
vt 0.841844 0.028269
vt 0.836700 0.040687
vt 0.341844 0.028269
vt 0.336700 0.040687
vt 0.796822 0.014612
vt 0.794199 0.027794
vt 0.296822 0.014612
vt 0.294199 0.027794
vt 0.750000 0.010000
vt 0.750000 0.023441
vt 0.250000 0.010000
vt 0.250000 0.023441
vt 0.703178 0.014612
vt 0.705800 0.027794
vt 0.203178 0.014612
vt 0.205800 0.027794
vt 0.658156 0.028269
vt 0.663300 0.040687
vt 0.158156 0.028269
vt 0.163300 0.040687
vt 0.616663 0.050447
vt 0.624130 0.061623
vt 0.116663 0.050447
vt 0.124130 0.061623
vt 0.580294 0.080294
vt 0.589798 0.089799
vt 0.080294 0.080294
vt 0.089798 0.089799
vt 0.550447 0.116663
vt 0.561623 0.124131
vt 0.050447 0.116663
vt 0.061623 0.124131
vt 0.528269 0.158156
vt 0.540687 0.163300
vt 0.028269 0.158156
vt 0.040687 0.163300
vt 0.514611 0.203179
vt 0.527794 0.205801
vt 0.014611 0.203179
vt 0.027794 0.205801
vt 0.510000 0.250000
vt 0.523441 0.250000
vt 0.010000 0.250000
vt 0.023441 0.250000
vn 0.9952 -0.0980 0.0000
vn 0.9569 -0.2903 -0.0000
vn 0.8819 -0.4714 -0.0000
vn 0.7730 -0.6344 -0.0000
vn 0.6344 -0.7730 -0.0000
vn 0.4714 -0.8819 -0.0000
vn 0.2903 -0.9569 -0.0000
vn 0.0980 -0.9952 -0.0000
vn -0.0980 -0.9952 -0.0000
vn -0.2903 -0.9569 -0.0000
vn -0.4714 -0.8819 -0.0000
vn -0.6344 -0.7730 -0.0000
vn -0.7730 -0.6344 -0.0000
vn -0.8819 -0.4714 -0.0000
vn -0.9569 -0.2903 -0.0000
vn -0.9952 -0.0980 0.0000
vn 0.0000 0.0000 -1.0000
vn 0.0000 -0.0000 1.0000
vn -0.9952 0.0980 0.0000
vn -0.9569 0.2903 0.0000
vn -0.8819 0.4714 0.0000
vn -0.7730 0.6344 0.0000
vn -0.6344 0.7730 0.0000
vn -0.4714 0.8819 0.0000
vn -0.2903 0.9569 0.0000
vn -0.0980 0.9952 0.0000
vn 0.0980 0.9952 0.0000
vn 0.2903 0.9569 0.0000
vn 0.4714 0.8819 0.0000
vn 0.6344 0.7730 0.0000
vn 0.7730 0.6344 0.0000
vn 0.8819 0.4714 0.0000
vn 0.9569 0.2903 0.0000
vn 0.9952 0.0980 0.0000
vn 0.0000 1.0000 0.0000
usemtl None
s 1
f 1/1/1 2/2/1 3/3/1 4/4/1
f 4/4/2 3/3/2 5/5/2 6/6/2
f 6/6/3 5/5/3 7/7/3 8/8/3
f 8/8/4 7/7/4 9/9/4 10/10/4
f 10/10/5 9/9/5 11/11/5 12/12/5
f 12/12/6 11/11/6 13/13/6 14/14/6
f 14/14/7 13/13/7 15/15/7 16/16/7
f 16/16/8 15/15/8 17/17/8 18/18/8
f 18/18/9 17/17/9 19/19/9 20/20/9
f 20/20/10 19/19/10 21/21/10 22/22/10
f 22/22/11 21/21/11 23/23/11 24/24/11
f 24/24/12 23/23/12 25/25/12 26/26/12
f 26/26/13 25/25/13 27/27/13 28/28/13
f 28/28/14 27/27/14 29/29/14 30/30/14
f 30/30/15 29/29/15 31/31/15 32/32/15
f 32/32/16 31/31/16 33/33/16 34/34/16
f 1/35/17 4/36/17 35/37/17 36/38/17
f 3/39/18 2/40/18 37/41/18 38/42/18
f 4/36/17 6/43/17 39/44/17 35/37/17
f 5/45/18 3/39/18 38/42/18 40/46/18
f 6/43/17 8/47/17 41/48/17 39/44/17
f 7/49/18 5/45/18 40/46/18 42/50/18
f 8/47/17 10/51/17 43/52/17 41/48/17
f 9/53/18 7/49/18 42/50/18 44/54/18
f 10/51/17 12/55/17 45/56/17 43/52/17
f 11/57/18 9/53/18 44/54/18 46/58/18
f 12/55/17 14/59/17 47/60/17 45/56/17
f 13/61/18 11/57/18 46/58/18 48/62/18
f 14/59/17 16/63/17 49/64/17 47/60/17
f 15/65/18 13/61/18 48/62/18 50/66/18
f 16/63/17 18/67/17 51/68/17 49/64/17
f 17/69/18 15/65/18 50/66/18 52/70/18
f 18/67/17 20/71/17 53/72/17 51/68/17
f 19/73/18 17/69/18 52/70/18 54/74/18
f 20/71/17 22/75/17 55/76/17 53/72/17
f 21/77/18 19/73/18 54/74/18 56/78/18
f 22/75/17 24/79/17 57/80/17 55/76/17
f 23/81/18 21/77/18 56/78/18 58/82/18
f 24/79/17 26/83/17 59/84/17 57/80/17
f 25/85/18 23/81/18 58/82/18 60/86/18
f 26/83/17 28/87/17 61/88/17 59/84/17
f 27/89/18 25/85/18 60/86/18 62/90/18
f 28/87/17 30/91/17 63/92/17 61/88/17
f 29/93/18 27/89/18 62/90/18 64/94/18
f 30/91/17 32/95/17 65/96/17 63/92/17
f 31/97/18 29/93/18 64/94/18 66/98/18
f 32/95/17 34/99/17 67/100/17 65/96/17
f 33/101/18 31/97/18 66/98/18 68/102/18
f 35/37/19 38/42/19 37/41/19 36/38/19
f 39/44/20 40/46/20 38/42/20 35/37/20
f 41/48/21 42/50/21 40/46/21 39/44/21
f 43/52/22 44/54/22 42/50/22 41/48/22
f 45/56/23 46/58/23 44/54/23 43/52/23
f 47/60/24 48/62/24 46/58/24 45/56/24
f 49/64/25 50/66/25 48/62/25 47/60/25
f 51/68/26 52/70/26 50/66/26 49/64/26
f 53/72/27 54/74/27 52/70/27 51/68/27
f 55/76/28 56/78/28 54/74/28 53/72/28
f 57/80/29 58/82/29 56/78/29 55/76/29
f 59/84/30 60/86/30 58/82/30 57/80/30
f 61/88/31 62/90/31 60/86/31 59/84/31
f 63/92/32 64/94/32 62/90/32 61/88/32
f 65/96/33 66/98/33 64/94/33 63/92/33
f 67/100/34 68/102/34 66/98/34 65/96/34
f 1/1/35 36/38/35 37/41/35 2/2/35
f 34/34/35 33/33/35 68/102/35 67/100/35
